<?xml version="1.0" encoding="UTF-8" standalone="no"?>
<svg
   version="1.1"
   id="svg62"
   width="30.666668"
   height="32"
   viewBox="0 0 30.666668 32"
   sodipodi:docname="ImportPointLeve.svg"
   inkscape:version="1.3 (0e150ed, 2023-07-21)"
   inkscape:export-filename="ImportPointLeve.png"
   inkscape:export-xdpi="300"
   inkscape:export-ydpi="300"
   xml:space="preserve"
   xmlns:inkscape="http://www.inkscape.org/namespaces/inkscape"
   xmlns:sodipodi="http://sodipodi.sourceforge.net/DTD/sodipodi-0.dtd"
   xmlns="http://www.w3.org/2000/svg"
   xmlns:svg="http://www.w3.org/2000/svg"
   xmlns:rdf="http://www.w3.org/1999/02/22-rdf-syntax-ns#"
   xmlns:cc="http://creativecommons.org/ns#"
   xmlns:dc="http://purl.org/dc/elements/1.1/"><metadata
     id="metadata68"><rdf:RDF><cc:Work
         rdf:about=""><dc:format>image/svg+xml</dc:format><dc:type
           rdf:resource="http://purl.org/dc/dcmitype/StillImage" /></cc:Work></rdf:RDF></metadata><defs
     id="defs66"><inkscape:perspective
       sodipodi:type="inkscape:persp3d"
       inkscape:vp_x="0 : 16 : 1"
       inkscape:vp_y="-463.29604 : 886.20359 : 0"
       inkscape:vp_z="30.666668 : 16 : 1"
       inkscape:persp3d-origin="15.333334 : 10.666667 : 1"
       id="perspective91" /></defs><sodipodi:namedview
     pagecolor="#ffffff"
     bordercolor="#666666"
     borderopacity="1"
     objecttolerance="10"
     gridtolerance="10"
     guidetolerance="10"
     inkscape:pageopacity="0"
     inkscape:pageshadow="2"
     inkscape:window-width="1440"
     inkscape:window-height="847"
     id="namedview64"
     showgrid="false"
     inkscape:zoom="11.890924"
     inkscape:cx="15.978573"
     inkscape:cy="18.081017"
     inkscape:window-x="0"
     inkscape:window-y="25"
     inkscape:window-maximized="0"
     inkscape:current-layer="svg62"
     inkscape:document-rotation="0"
     inkscape:showpageshadow="0"
     inkscape:pagecheckerboard="0"
     inkscape:deskcolor="#d1d1d1" /><g
     inkscape:groupmode="layer"
     inkscape:label="Image"
     id="g70"
     style="opacity:0.73" /><g
     inkscape:groupmode="layer"
     id="layer4"
     inkscape:label="Image 2"
     transform="translate(-3.8935074,-2.8316418)" /><g
     inkscape:groupmode="layer"
     id="layer2"
     inkscape:label="Image 4"
     transform="translate(-1.6819551,1.4296618)"><path
       id="path1-3"
       style="fill:none;fill-opacity:1;stroke:#ffffff;stroke-width:1.14757;stroke-linecap:butt;stroke-linejoin:miter;stroke-dasharray:none;stroke-opacity:1"
       d="M 8.9951656,1.9346048 C 6.9580414,5.4206826 4.9207407,8.9066526 2.8837235,12.392792 5.0362254,16.065045 7.189836,19.736653 9.3433249,23.408334 11.516131,19.736005 13.69003,16.064324 15.864192,12.392792 13.689327,8.7092325 11.516734,5.0243166 9.3433249,1.3398991 9.2272718,1.5381326 9.1112175,1.7363713 8.9951656,1.9346048 Z" /><path
       style="fill:#ffffff;fill-opacity:1;stroke:#000000;stroke-width:0.765051;stroke-linecap:butt;stroke-linejoin:miter;stroke-dasharray:none;stroke-opacity:1"
       d="M 9.3451678,2.1386507 3.3531126,12.392892 9.3451678,22.609919 15.392981,12.392892 Z"
       id="path1"
       sodipodi:nodetypes="ccccc" /><path
       style="fill:none;stroke:#000000;stroke-width:0.765051;stroke-linecap:butt;stroke-linejoin:miter;stroke-dasharray:none;stroke-opacity:1"
       d="m 9.3451678,2.1386507 v 20.4712683 0"
       id="path2"
       sodipodi:nodetypes="ccc" /><path
       style="fill:none;stroke:#000000;stroke-width:0.765051;stroke-linecap:butt;stroke-linejoin:miter;stroke-dasharray:none;stroke-opacity:1"
       d="M 15.307502,12.392892 H 3.3269789"
       id="path3"
       sodipodi:nodetypes="cc" /></g><g
     inkscape:groupmode="layer"
     id="layer1"
     inkscape:label="Image 3"><path
       style="display:inline;fill:#008500;fill-opacity:1;stroke:#2ca700;stroke-width:0.397421;stroke-dasharray:none;stroke-opacity:1"
       d="m 24.805919,31.589371 4.894146,-5.998804 c 0.185977,-0.224956 0.215341,-0.530895 0.07668,-0.784344 -0.138667,-0.254949 -0.420896,-0.415419 -0.729228,-0.415419 h -2.447073 v -2.249553 c 1e-6,-4.548594 -1.936443,-6.328735 -6.884425,-6.328735 -0.378481,0 -0.708022,0.23995 -0.794483,0.577389 -0.01468,0.05699 -0.02121,0.115473 -0.02121,0.172463 0,0.278946 0.169664,0.541394 0.450265,0.670362 l 0.383372,0.176969 c 2.504165,1.150271 1.972334,1.543191 1.972334,4.116674 v 2.864431 h -2.447076 c -0.308326,0 -0.590555,0.16047 -0.729227,0.41392 -0.138669,0.253449 -0.109304,0.559389 0.07668,0.785843 l 4.894146,5.998804 c 0.153348,0.188962 0.396428,0.29994 0.652555,0.29994 0.25612,0 0.499197,-0.110978 0.652547,-0.29994 z"
       id="path1476"
       sodipodi:nodetypes="cccscsscsccscssccssc" /></g><g
     id="g3349"
     transform="matrix(0.90877685,0,0,0.91912716,-2.0605577,-16.029254)"
     style="fill:#008500;fill-opacity:1"><ellipse
       style="opacity:1;fill:#008500;fill-opacity:1;stroke:#008500;stroke-width:2.70564;stroke-linecap:round;stroke-linejoin:round;stroke-miterlimit:4;stroke-dasharray:none;stroke-dashoffset:0;stroke-opacity:1;paint-order:stroke markers fill"
       id="path3306"
       cx="22.750387"
       cy="23.789024"
       rx="4.6471796"
       ry="4.6471777" /><path
       style="fill:none;stroke:#ffffff;stroke-width:2.1812;stroke-linecap:butt;stroke-linejoin:miter;stroke-miterlimit:4;stroke-dasharray:none;stroke-opacity:1"
       d="m 18.604928,23.854557 h 8.281621"
       id="path6054"
       sodipodi:nodetypes="cc" /><path
       style="fill:none;fill-opacity:1;stroke:#ffffff;stroke-width:2.1812;stroke-linecap:butt;stroke-linejoin:miter;stroke-miterlimit:4;stroke-dasharray:none;stroke-opacity:1"
       d="m 22.763821,19.760376 v 8.188362"
       id="path6054-9"
       sodipodi:nodetypes="cc" /></g></svg>
